<?xml version="1.0" standalone="no"?>
<!DOCTYPE svg PUBLIC "-//W3C//DTD SVG 20010904//EN"
 "http://www.w3.org/TR/2001/REC-SVG-20010904/DTD/svg10.dtd">
<svg version="1.0" xmlns="http://www.w3.org/2000/svg"
 width="240px" height="62px" viewBox="0 0 1600.000000 590.000000"
 preserveAspectRatio="xMidYMid meet">

<g transform="translate(0.000000,590.000000) scale(0.100000,-0.100000)"
fill="#000000" stroke="none">
<path d="M2955 4431 c-90 -27 -131 -47 -200 -96 -143 -102 -232 -264 -250
-457 l-7 -68 -279 0 -279 0 0 -22 c0 -13 -5 -90 -10 -173 -11 -182 -15 -244
-40 -685 -11 -190 -33 -586 -50 -880 -17 -294 -34 -595 -38 -667 l-7 -133
1320 0 1320 0 -22 378 c-11 207 -33 584 -47 837 -55 969 -66 1153 -72 1248
l-7 97 -277 0 -277 0 -12 89 c-6 48 -20 114 -31 146 -59 171 -197 310 -370
372 -99 36 -273 42 -365 14z m357 -153 c166 -79 261 -215 283 -405 l7 -63
-487 0 -487 0 6 58 c20 170 94 296 222 378 90 58 155 75 274 72 97 -3 111 -6
182 -40z m-674 -644 c58 -40 65 -119 14 -166 -36 -34 -65 -42 -107 -28 -66 22
-95 97 -61 159 27 48 108 67 154 35z m1088 -18 c26 -26 34 -42 34 -71 0 -47
-31 -90 -74 -105 -44 -14 -77 -5 -112 31 -23 24 -29 39 -29 75 0 39 5 50 33
75 47 43 102 41 148 -5z m-457 -226 c155 -26 318 -117 438 -243 87 -92 142
-183 185 -307 32 -92 33 -100 33 -255 0 -155 -1 -163 -33 -255 -96 -276 -320
-478 -603 -545 -83 -19 -265 -19 -349 0 -148 35 -277 104 -386 208 -170 160
-255 359 -255 592 0 235 85 431 255 593 194 184 442 257 715 212z"/>
<path d="M3102 3123 c-27 -10 -40 -61 -47 -191 l-7 -132 -230 -224 c-235 -229
-257 -257 -198 -264 16 -1 105 37 235 101 134 67 212 100 216 93 4 -6 10 -49
13 -96 l7 -85 -70 -60 c-65 -56 -70 -63 -70 -102 -1 -24 2 -43 7 -43 4 0 31
14 61 30 30 17 56 29 57 27 2 -1 9 -21 16 -42 20 -60 31 -52 54 33 3 9 21 4
63 -18 33 -16 63 -30 66 -30 3 0 5 17 5 39 0 33 -8 47 -61 105 l-62 67 7 86
c3 48 9 89 12 92 3 3 97 -41 209 -97 203 -104 246 -117 253 -79 2 11 -70 89
-226 242 l-229 225 -7 131 c-4 72 -11 142 -16 155 -10 25 -38 44 -58 37z"/>
<path d="M5066 3208 c-3 -18 -35 -278 -72 -578 -36 -300 -69 -573 -73 -607
l-7 -63 133 0 c78 0 133 4 133 10 0 26 101 874 104 878 4 4 58 -161 222 -676
l68 -213 64 3 64 3 136 438 c75 240 138 437 142 437 3 0 30 -198 60 -440 l54
-440 132 0 c121 0 132 2 128 18 -2 9 -38 280 -79 602 -41 322 -77 602 -81 623
l-6 37 -156 -2 -156 -3 -116 -372 c-63 -204 -118 -375 -122 -378 -4 -4 -23 44
-42 106 -20 63 -73 233 -119 379 l-83 265 -161 3 -162 2 -5 -32z"/>
<path d="M7390 2594 l0 -635 288 3 c285 3 288 3 367 31 198 70 327 210 382
417 23 87 23 280 0 370 -58 222 -218 385 -430 435 -46 11 -130 15 -334 15
l-273 0 0 -636z m540 377 c161 -50 235 -169 235 -376 -1 -170 -46 -267 -155
-333 -75 -44 -108 -53 -232 -59 l-108 -6 0 403 0 403 99 -6 c55 -4 127 -16
161 -26z"/>
<path d="M11140 2595 l0 -635 135 0 135 0 0 260 0 260 220 0 220 0 0 120 0
120 -217 2 -218 3 -3 133 -3 132 221 0 220 0 0 120 0 120 -355 0 -355 0 0
-635z"/>
<path d="M9570 2935 l0 -145 -80 0 -80 0 0 -110 0 -110 80 0 80 0 0 -305 0
-305 125 0 125 0 0 305 0 305 90 0 90 0 0 110 0 110 -90 0 -90 0 0 145 0 145
-125 0 -125 0 0 -145z"/>
<path d="M12793 2795 c-145 -39 -257 -146 -297 -284 -18 -62 -21 -194 -5 -261
25 -110 108 -217 203 -263 131 -64 309 -62 438 4 49 25 126 95 151 138 21 36
32 29 -115 77 l-88 28 -37 -36 c-104 -102 -232 -87 -294 34 -10 21 -19 49 -19
63 l0 25 295 0 295 0 0 64 c0 159 -93 312 -235 383 -83 42 -198 53 -292 28z
m194 -176 c31 -20 61 -64 77 -116 l7 -23 -170 0 c-191 0 -188 -2 -151 70 18
36 55 70 90 83 37 14 114 6 147 -14z"/>
<path d="M13695 2796 c-140 -35 -260 -147 -302 -284 -21 -71 -18 -213 6 -293
36 -115 122 -207 233 -252 79 -31 269 -31 351 2 71 28 146 86 186 145 l31 44
-111 37 -111 37 -36 -35 c-62 -60 -135 -81 -199 -56 -60 22 -113 95 -113 154
l0 25 295 0 295 0 0 58 c0 151 -85 301 -211 375 -89 52 -210 69 -314 43z m181
-172 c33 -16 74 -71 89 -121 l6 -23 -170 0 c-186 0 -182 -1 -160 57 33 88 146
129 235 87z"/>
<path d="M12305 2786 c-34 -15 -70 -47 -102 -91 l-22 -30 -1 63 0 62 -125 0
-125 0 0 -415 0 -415 125 0 125 0 0 195 c0 236 9 286 60 338 38 38 47 40 145
41 l49 1 19 124 c15 102 16 125 5 132 -20 13 -119 10 -153 -5z"/>
<path d="M6371 2648 c96 -191 309 -629 309 -636 0 -2 -34 -84 -77 -181 -42
-97 -82 -191 -90 -208 l-13 -33 128 0 128 0 255 591 c140 325 256 595 257 600
2 6 -47 8 -123 7 l-127 -3 -102 -232 c-56 -128 -105 -235 -108 -239 -4 -3 -59
103 -124 235 l-118 241 -133 0 -133 0 71 -142z"/>
<path d="M8511 2633 c0 -87 4 -219 8 -294 7 -119 11 -144 34 -192 53 -106 161
-180 297 -199 199 -29 375 52 452 210 l33 67 3 282 4 283 -126 0 -126 0 0
-213 c0 -253 -8 -295 -70 -351 -36 -32 -46 -36 -94 -36 -64 0 -103 26 -139 94
-21 39 -22 53 -22 273 l0 233 -127 0 -128 0 1 -157z"/>
<path d="M10060 2787 c0 -2 85 -177 190 -389 l189 -385 -89 -204 c-50 -112
-90 -207 -90 -211 0 -5 57 -7 126 -6 l127 3 92 215 c51 118 167 387 257 598
l165 382 -126 0 -126 0 -105 -240 c-58 -132 -107 -240 -110 -240 -4 0 -59 108
-123 240 l-116 240 -130 0 c-72 0 -131 -2 -131 -3z"/>
</g>
</svg>
